<svg xmlns="http://www.w3.org/2000/svg" viewBox="0 0 132.8 118.35"><defs><style>.cls-1{fill:#fbc7ba;stroke-width:3.1px;}.cls-1,.cls-2,.cls-4,.cls-5,.cls-6{stroke:#de9757;stroke-linecap:round;stroke-linejoin:round;}.cls-2{fill:#fffef9;stroke-width:4px;}.cls-3{fill:#de9757;}.cls-4{fill:none;}.cls-4,.cls-6{stroke-width:3px;}.cls-5,.cls-6{fill:#e0de8f;}.cls-5{stroke-width:2.63px;}</style></defs><g id="Layer_2" data-name="Layer 2"><g id="Layer_2-2" data-name="Layer 2"><path class="cls-1" d="M68.87,32.53A13.38,13.38,0,0,1,68,29.05c-.45-3.77.92-6.2-.76-8.08-2.09-2.33-6.59-1.23-7.34-1-.19,0-7.4,1.44-7.47,6.72,0,1.88,1.68,2.61,3.7,5A18.58,18.58,0,0,1,58.84,36"/><path class="cls-2" d="M58.84,36a25.77,25.77,0,0,1,2,7.28c-14.94-4.72-30-1-37.37,8.9-10.76,14.28-.1,34.18,1.18,36.58,10.88,20.31,39,30.49,71.19,26.89C121.76,97,135.28,70.81,129.46,49.19c-.63-2.34-6.52-24.24-24.36-27-11.52-1.82-24,5-31.4,17.15a19.92,19.92,0,0,1-4.83-6.77"/><path class="cls-1" d="M29.74,82.65a60.86,60.86,0,0,0,20.88,19.14C69,111.9,87,109.13,92.53,108.05A67,67,0,0,0,124.05,55"/><path class="cls-1" d="M121.57,48.4c-5.27-5.68-17.74-1.31-19.32-.75-10.81,3.91-9.85,9.77-19.46,15.12-12,6.71-17.62-.23-36.78,6.59C39,71.87,28,77,28.59,80.89c.31,2.06,3.7,3.13,4.19,3.28,4.45,1.4,8.33-1.22,13.82-3.54a73.81,73.81,0,0,1,15.1-4.15c11.52-1.89,13.65,2.75,28,2.11,5.52-.25,10.8-.54,16.87-3.5,6.77-3.28,10.33-7.83,14.26-12.85,2-2.54,3.23-4.62,3.27-7.28A9.73,9.73,0,0,0,121.57,48.4Z"/><circle class="cls-3" cx="97.46" cy="36.52" r="7.27"/><circle class="cls-3" cx="65.64" cy="93.12" r="8.01"/><path class="cls-3" d="M70.44,33.36l-12.31,4.2a3.11,3.11,0,0,1-2-5.86l12.3-4.21a3.12,3.12,0,0,1,2,5.87Z"/><path class="cls-4" d="M79.61,7.18A32.6,32.6,0,0,0,68.05,23.71"/><path class="cls-5" d="M69.48,16.38c.28-.43,2.79-4.43,1.08-8.87a10.1,10.1,0,0,0-9.82-6.19,13.11,13.11,0,0,0,1.59,9.57A13,13,0,0,0,69.48,16.38Z"/><path class="cls-5" d="M69.84,19.12a13.76,13.76,0,0,1,9.43-4.8,13.37,13.37,0,0,1,7.82,2c-.34.48-3.82,5.41-9.86,5.43A11.87,11.87,0,0,1,69.84,19.12Z"/><path class="cls-4" d="M21.47,55.32a30.3,30.3,0,0,0,7.3,10.6,32.1,32.1,0,0,0,8.58,5.61,34.26,34.26,0,0,0,12.38,3"/><path class="cls-6" d="M34,40.37c-1.21.45-7.16,2.76-9.68,8.69a14,14,0,0,0,.51,11.72c1.11-.29,7.09-1.94,10-7.25C38.28,47.19,34.42,41.05,34,40.37Z"/><path class="cls-6" d="M1.5,58.23a18.06,18.06,0,0,0,11.24,7.69,16.34,16.34,0,0,0,12.35-2.84c-.54-1-3.53-6.51-9.78-8.29C7.85,52.68,2.13,57.66,1.5,58.23Z"/><path class="cls-6" d="M44.52,53.12a14.93,14.93,0,0,0-8.19,7.74,13.2,13.2,0,0,0,.24,10.39c.94-.26,5.94-1.74,8.44-6.46C48,59.16,44.88,53.72,44.52,53.12Z"/><path class="cls-6" d="M14.15,78.83c1.19.57,7.17,3.27,13.1.9A13.41,13.41,0,0,0,34.91,71c-1-.61-6.55-3.81-12.34-2.16C15.66,70.82,14.29,78,14.15,78.83Z"/><path class="cls-1" d="M58.84,36l10-3.45"/></g></g></svg>