<svg xmlns="http://www.w3.org/2000/svg" viewBox="0 0 137.89 159.41"><defs><style>.cls-1,.cls-12,.cls-13,.cls-7{fill:#df9757;}.cls-1,.cls-10,.cls-11,.cls-12,.cls-13,.cls-15,.cls-2,.cls-3,.cls-4,.cls-6,.cls-9{stroke:#de9757;}.cls-1,.cls-10,.cls-15,.cls-2,.cls-3,.cls-4,.cls-6,.cls-9{stroke-linecap:round;stroke-linejoin:round;}.cls-1,.cls-10,.cls-11,.cls-12,.cls-15,.cls-4,.cls-6{stroke-width:2px;}.cls-2{fill:#f04e36;}.cls-2,.cls-3,.cls-9{stroke-width:3px;}.cls-15,.cls-3{fill:#f9eed3;}.cls-4{fill:#fccfbf;}.cls-10,.cls-5{fill:#fffef9;}.cls-6,.cls-9{fill:none;}.cls-8{fill:#eab286;}.cls-11{fill:#e4a088;}.cls-11,.cls-12,.cls-13{stroke-miterlimit:10;}.cls-14{fill:#de9757;}</style></defs><g id="Layer_2" data-name="Layer 2"><g id="Layer_2-2" data-name="Layer 2"><path class="cls-1" d="M40.5,85c-.3-1.76-4.74-2.45-7.3-2.45a14.93,14.93,0,0,0-6.81,1.71c1.63,3.13,4.49,5.12,7.49,5.1C37.32,89.36,40.79,86.7,40.5,85Z"/><path class="cls-2" d="M36.92,150.32a7.3,7.3,0,0,1-3.64-.5c-2.72-1.18-4-4-4.43-4.92-2-4.33-8.46-16.52-17.18-33.21a4.84,4.84,0,0,1,1-3.58,4.93,4.93,0,0,1,2.22-1.29,10,10,0,0,1,3.69-.61c2.5.08,41-1.51,94.56-3.79a10.19,10.19,0,0,1,2,.28,6.16,6.16,0,0,1,2.33.87,5.35,5.35,0,0,1,1.89,2.77l14.54,30.26,1.48,3.28c.12.21,1.79,3.18.51,5.19a4.41,4.41,0,0,1-1.77,1.45,7.83,7.83,0,0,1-3.67.95C128,147.52,89.6,148.73,36.92,150.32Z"/><path class="cls-3" d="M113.64,97.33a8.69,8.69,0,0,0-6.6,6.31,8.83,8.83,0,0,0,5.35,9.88,9.17,9.17,0,0,0,6.09-9.11C118.11,99.8,113.94,97.49,113.64,97.33Z"/><path class="cls-3" d="M110.94,95.26a10.43,10.43,0,0,0-17.38,6.86,13.12,13.12,0,0,0,11.07.16A12.75,12.75,0,0,0,110.94,95.26Z"/><path class="cls-3" d="M111.71,91.07A11,11,0,0,0,108,82.73a10.72,10.72,0,0,0-11.09-1.49,11,11,0,0,0,2,7.35A9.64,9.64,0,0,0,103.23,92,10.29,10.29,0,0,0,111.71,91.07Z"/><path class="cls-3" d="M114.41,90.31A9.84,9.84,0,0,0,122,82.12c.59-4.83-3-8.09-3.33-8.38a9.47,9.47,0,0,0-4.25,16.57Z"/><path class="cls-3" d="M117,92.44c.44.28,5.4,3.36,10.92,1.06a12,12,0,0,0,6.4-6.72A10.36,10.36,0,0,0,117,92.44Z"/><path class="cls-3" d="M116.93,95.81a8.65,8.65,0,0,0,14.27,8.13,9,9,0,0,0-14.27-8.13Z"/><path class="cls-4" d="M117.2,94.16a3.37,3.37,0,1,1-2.79-3.85A3.36,3.36,0,0,1,117.2,94.16Z"/><path class="cls-5" d="M106.39,126.59a9.55,9.55,0,0,1-2.12,8.59c-3.48,3.73-10.59,4.13-16.52-.13l9-16.21a11.59,11.59,0,0,1,3.16.75A10.23,10.23,0,0,1,106.39,126.59Z"/><path class="cls-5" d="M104.61,97.05c.2.54,4.51,12.19-.38,15.87a6.82,6.82,0,0,1-4.87,1c-.17-1.11-.4-2.28-.69-3.48a47.82,47.82,0,0,0-3.26-9.31L94.6,84.77A26.46,26.46,0,0,1,104.61,97.05Z"/><path class="cls-5" d="M99.94,119.59l-.58-5.66A47.46,47.46,0,0,1,99.94,119.59Z"/><path class="cls-5" d="M87.74,135.05a10.8,10.8,0,0,1-3.22,4.55c-5,4.07-12.82,1.62-22.13-1.36-10-3.21-15.21-4.87-19.25-8.89C34,120.24,34,102.21,41.94,84.51l52.66.26.81,16.37a47.82,47.82,0,0,1,3.26,9.31c.29,1.2.52,2.37.69,3.48l.58,5.66a11.59,11.59,0,0,0-3.16-.75l-9,16.21Z"/><path class="cls-6" d="M95.41,101.14a47.82,47.82,0,0,1,3.26,9.31c.29,1.2.52,2.37.69,3.48a47.46,47.46,0,0,1,.58,5.66l-.58-5.66a6.82,6.82,0,0,0,4.87-1c4.89-3.68.58-15.33.38-15.87a26.46,26.46,0,0,0-10-12.28"/><path class="cls-6" d="M96.78,118.84a11.59,11.59,0,0,1,3.16.75,10.23,10.23,0,0,1,6.45,7,9.55,9.55,0,0,1-2.12,8.59c-3.48,3.73-10.59,4.13-16.52-.13"/><path class="cls-6" d="M94.6,84.77l-52.66-.26c-7.95,17.7-7.93,35.73,1.2,44.84,4,4,9.22,5.68,19.25,8.89,9.31,3,17.18,5.43,22.13,1.36a10.8,10.8,0,0,0,3.22-4.55,9.24,9.24,0,0,0,.53-4.64c-.7-4.53-5-8.38-10.9-9.19"/><path class="cls-6" d="M60.4,105.58c5.28,3,7.78,7.63,6.68,11A6.31,6.31,0,0,1,64,120c-3.65,1.77-9.14-.19-13.42-5.1"/><path class="cls-7" d="M84.69,13.69A88.44,88.44,0,0,0,20.6,30C24,26,35.27,14.42,53,10.62,66.35,7.78,80.53,12,85.9,13.74,85.5,13.71,85.1,13.7,84.69,13.69Z"/><path class="cls-8" d="M85.9,13.74C80.53,12,66.35,7.78,53,10.62,35.27,14.42,24,26,20.6,30c1-3,6.06-17.61,21.14-24.76A38.84,38.84,0,0,1,63,1.78a38.9,38.9,0,0,1,23.12,12Z"/><path class="cls-8" d="M123.44,36c1.88,11.16-9.06,21.15-14.74,26.35C88.09,81.13,60.77,80.11,52.86,79.69,37.8,78.89,4,73.35,1.63,56.85-.06,44.94,15.54,33.48,20.6,30A88.44,88.44,0,0,1,84.69,13.69c.41,0,.81,0,1.21.05l.24.08-.07-.08C106.6,14.73,121.5,24.55,123.44,36Z"/><path class="cls-8" d="M86.07,13.74l.07.08-.24-.08Z"/><path class="cls-9" d="M86.14,13.82l-.07-.08A38.9,38.9,0,0,0,63,1.78,38.84,38.84,0,0,0,41.74,5.24C26.66,12.39,21.58,27,20.6,30"/><path class="cls-9" d="M20.6,30A88.44,88.44,0,0,1,84.69,13.69"/><path class="cls-9" d="M84.69,13.69c.41,0,.81,0,1.21.05h.17c20.53,1,35.43,10.81,37.37,22.24,1.88,11.16-9.06,21.15-14.74,26.35C88.09,81.13,60.77,80.11,52.86,79.69,37.8,78.89,4,73.35,1.63,56.85-.06,44.94,15.54,33.48,20.6,30"/><path class="cls-9" d="M86.14,13.82l-.24-.08C80.53,12,66.35,7.78,53,10.62,35.27,14.42,24,26,20.6,30"/><path class="cls-1" d="M43.67,85.48a65.28,65.28,0,0,0,36.85,15.8A27.68,27.68,0,0,0,90.3,93.2a27.3,27.3,0,0,0,4.3-8.43"/><path class="cls-10" d="M31.63,65.57a15.39,15.39,0,0,0,0,8.08c3.58,12.46,24.67,16.51,37,16.63,12.56.12,35.39-3.65,38.56-16.63,1.18-4.84-.67-9.72-3.06-13.66a23.79,23.79,0,0,0,.27-5.57,25,25,0,0,0-5-13.1c13.25-4.61,19.14-17,15.88-25.43-2.26-5.84-8.93-9.83-15.15-9.7-9.36.2-18.52,9.75-18.61,23a44.32,44.32,0,0,0-32.85-.85,25.76,25.76,0,0,0-15.31-.13C18.68,33,9.55,52.82,15.19,61.39c3,4.48,10.47,6.65,16.44,4.18s9.8-9.4,8.92-17"/><path class="cls-11" d="M104.37,57.6c-1.63,6.66-14.8,12.34-24.56,8.93C67.1,62.09,64.61,43.77,63.94,38.8A47,47,0,0,1,64,25.61a45.92,45.92,0,0,1,15.41,2.8c.7.25,1.37.52,2,.8.77-12.64,8.6-21.93,17.37-22.93,5-.57,11.09,1.48,14.38,6.15,4.88,6.93,1.43,16.5-2.73,21.68a22.07,22.07,0,0,1-11.14,7.21,25.82,25.82,0,0,1,4.76,11A13.06,13.06,0,0,1,104.37,57.6Z"/><path class="cls-11" d="M15.1,46.9a26.71,26.71,0,0,1,10.49,4.2,27.25,27.25,0,0,1,9.78,12.1,13.5,13.5,0,0,1-16.13,1.71C13.58,61.31,11.52,53.35,15.1,46.9Z"/><ellipse class="cls-12" cx="51.74" cy="60.15" rx="4.43" ry="3.91"/><ellipse class="cls-12" cx="85.1" cy="59.99" rx="4.43" ry="3.91"/><ellipse class="cls-13" cx="68.42" cy="62.83" rx="1.57" ry="0.78"/><path class="cls-6" d="M64.58,68.29a2.63,2.63,0,0,0,2.29.43,2.58,2.58,0,0,0,1.55-1.46"/><path class="cls-6" d="M72.26,68.29a2.46,2.46,0,0,1-3.84-1"/><path class="cls-4" d="M93.78,31.38c-1.4-1-1.44-3-1.45-3.74-.08-4,3.17-9.41,7.24-9.19a5.25,5.25,0,0,1,4.33,2.8c1.73,3.6-2.22,8.8-6.19,10.18C97,31.67,95.15,32.32,93.78,31.38Z"/><path class="cls-4" d="M43.88,77c-.08,4-3.49,6.3-3.8,6.5a16.66,16.66,0,0,1-9-12.47,8.23,8.23,0,0,1,6.53-1.79A7.91,7.91,0,0,1,43.88,77Z"/><path class="cls-4" d="M94.84,77a8.5,8.5,0,0,0,3.8,6.5,16.66,16.66,0,0,0,9-12.47,8.23,8.23,0,0,0-6.53-1.79A7.91,7.91,0,0,0,94.84,77Z"/><circle class="cls-14" cx="119.01" cy="135.05" r="7.27"/><circle class="cls-14" cx="26.18" cy="116.72" r="5.35"/><path class="cls-4" d="M33.3,147.27a2.11,2.11,0,1,1-1.16-2.75A2.11,2.11,0,0,1,33.3,147.27Z"/><path class="cls-15" d="M30.68,148.7a6,6,0,0,0-4.11,2.86,5.46,5.46,0,0,0-.55,2.71,6.8,6.8,0,0,0,1.62,4.14,6.27,6.27,0,0,0,3.63-2.57,5.75,5.75,0,0,0-.59-7.14Z"/><path class="cls-15" d="M29.33,147.06a7.47,7.47,0,0,0-5.89-2.21,7.62,7.62,0,0,0-5.69,4,9,9,0,0,0,5.51,1.37A9.24,9.24,0,0,0,29.33,147.06Z"/><path class="cls-15" d="M30.38,144.61a6.26,6.26,0,0,0-.54-4.77A5.91,5.91,0,0,0,28,138a9.06,9.06,0,0,0-5.31-1.51A8.74,8.74,0,0,0,23.1,140a6.87,6.87,0,0,0,2.1,3.4A6.66,6.66,0,0,0,30.38,144.61Z"/><path class="cls-15" d="M32.14,144.52a6.57,6.57,0,0,0,5.8-4,6.67,6.67,0,0,0-.37-5.52,7,7,0,0,0-5.37,3.46A6.86,6.86,0,0,0,32.14,144.52Z"/><path class="cls-15" d="M33.45,146.48a8.23,8.23,0,0,0,11.74-1.7,8.52,8.52,0,0,0-5.44-1.69A8.77,8.77,0,0,0,33.45,146.48Z"/><path class="cls-15" d="M32.9,148.24a6.58,6.58,0,0,0,1.53,6c2.24,2.7,5.54,1.55,5.87,1.53a5.77,5.77,0,0,0-1-4.67C37.34,147.82,33.36,148.29,32.9,148.24Z"/></g></g></svg>