<?xml version="1.0" encoding="utf-8"?>
<!-- Generator: Adobe Illustrator 25.4.1, SVG Export Plug-In . SVG Version: 6.00 Build 0)  -->
<svg version="1.1" id="Layer_1" xmlns="http://www.w3.org/2000/svg" xmlns:xlink="http://www.w3.org/1999/xlink" x="0px" y="0px"
	 viewBox="0 0 133.7 163.1" style="enable-background:new 0 0 133.7 163.1;" xml:space="preserve">
<style type="text/css">
	.st0{fill:#FDCF85;}
	.st1{fill:#F09F54;}
	.st2{fill:#FFBE9F;}
	.st3{fill:none;stroke:#DE9757;stroke-width:2;stroke-linecap:round;stroke-linejoin:round;}
	.st4{fill:#FF4713;stroke:#DE9757;stroke-width:2;stroke-linecap:round;stroke-linejoin:round;}
	.st5{fill:#FFFFFF;stroke:#DE9757;stroke-width:2;stroke-linecap:round;stroke-linejoin:round;}
	.st6{fill:#F3CFB2;stroke:#DE9757;stroke-width:2;stroke-linecap:round;stroke-linejoin:round;}
	.st7{fill:#FFBE9F;stroke:#DE9757;stroke-width:2;stroke-linecap:round;stroke-linejoin:round;}
	.st8{fill:#FEFEFE;}
	.st9{fill:#FF4713;}
	.st10{fill:#FEFEFE;stroke:#DE9757;stroke-width:2;stroke-linecap:round;stroke-linejoin:round;}
	.st11{fill:#DE9757;}
	.st12{fill:#FFBE9F;stroke:#DE9757;stroke-width:2;stroke-miterlimit:10;}
	.st13{fill:#DE9757;stroke:#DE9757;stroke-width:2;stroke-linecap:round;stroke-linejoin:round;}
</style>
<g id="Layer_2_00000018929781378694160430000015904319986983824020_">
	<g id="Design4">
		<path class="st0" d="M112.8,70.3c-0.8,2.5-0.2,3.8,2.1,13.3c2,8.3,2.5,10.6,4.1,11c2,0.4,4.3-2.8,4.6-3.3
			c0.7-1.1,2.9-4.6,0.9-16.1c-1.2-7.3-2-11.5-4.3-12C117.6,62.6,114.1,66.5,112.8,70.3z"/>
		<path class="st0" d="M4.2,69.3c-1.2,6.1-2,12.3-2.1,18.5c-0.3,3,0.3,6,1.5,8.7c1.4,2.8,4.4,6.5,6.4,5.9c2.9-0.9,2.5-10.7,2.3-16.2
			c-0.2-3.5-0.5-7-1.1-10.4"/>
		<path class="st0" d="M13.5,102.4L13.5,102.4c-0.4,0.7-0.7,1.4-0.7,2.2c0,4.8,10.3,8.1,22.3,12c25.1,8.2,45.6,2.5,54.2,0
			c6.4-1.9,19.4-5.7,19.6-11.3c0.1-4.5-8-8.1-11.7-9.7C66.8,82.6,19.8,92.4,13.5,102.4z M12.2,92.9c3.4-1.7,8.8-3.6,17.2-5.4
			c14.3-3.1,33-7.1,56.8-0.8c10.7,2.8,21.5,5.7,29,11l-0.9,1.8l0.5,7.7l0.3,0.9l6.7-2.6l0.4-0.2c0.6,1,1,2.1,1.4,3.2
			c4.8,13.8-6.7,30.1-15.8,38.2c-26.8,23.8-79.1,18-98.3-8.5c-7-9.7-10.4-25-6-35.8c0.7-1.8,1.6-3.4,2.8-4.9
			C6.9,96.5,8.2,94.8,12.2,92.9z"/>
		<path class="st1" d="M97.1,95.7c3.7,1.6,11.8,5.2,11.7,9.7c-0.1,5.6-13.1,9.4-19.5,11.3c-8.6,2.5-29.1,8.2-54.2,0
			c-12-3.9-22.2-7.3-22.3-12c0-0.8,0.3-1.6,0.7-2.2l0,0C19.8,92.4,66.8,82.6,97.1,95.7z"/>
		<path class="st2" d="M119.1,101.1c1.2,1.2,2.2,2.6,3,4.1l-0.4,0.2l-6.7,2.6l-0.3-0.9l-0.5-7.7l0.9-1.8
			C116.6,98.7,117.9,99.8,119.1,101.1z"/>
		<polyline class="st3" points="121.7,105.4 115.1,108 113.3,108.7 		"/>
		<path class="st3" d="M13.5,102.4c-0.4,0.7-0.7,1.4-0.7,2.2c0,4.8,10.3,8.1,22.3,12c25.1,8.2,45.6,2.5,54.2,0
			c6.4-1.9,19.4-5.7,19.6-11.3c0.1-4.5-8-8.1-11.7-9.7C66.8,82.6,19.8,92.4,13.5,102.4"/>
		<path class="st3" d="M13.5,102.4L13.5,102.4c-0.6-3.2-1-6.3-1.3-9.5c-2.7-36.6,20.6-65.4,43-68.4c25.1-3.3,59.5,24.3,60.3,67.5
			c0,0.8,0,1.7,0,2.6"/>
		<path class="st3" d="M3.4,102.3L3.4,102.3c-9.8-46.7,23.8-86.1,57-87.5c31-1.3,65.8,30.5,65.1,74.7c0.7,2,0.1,4.1-1.2,5
			c-0.9,0.5-2,0.7-3,0.3c-1.5-0.4-2.7-1.5-3.3-2.9"/>
		<path class="st3" d="M115.1,97.6c-7.4-5.3-18.3-8.2-29-11c-23.7-6.2-42.5-2.2-56.8,0.8c-8.4,1.8-13.8,3.7-17.2,5.4
			c-3.9,1.9-5.3,3.6-6,4.4c-1.2,1.5-2.1,3.2-2.8,4.9c-4.4,10.8-1,26.1,6,35.8c19.2,26.6,71.5,32.3,98.3,8.5
			c9.1-8.1,20.6-24.4,15.8-38.2c-0.4-1.1-0.9-2.2-1.4-3.2"/>
		<path class="st4" d="M125.3,47.1c3,21.3-22.2,41.4-56.2,44.9c-6.1,0.6-22.3,3.7-39.7-4.5C24.5,85.2,3.8,75.4,2.1,59.8
			c-2.1-20,28.2-42,56.2-44.9C92.3,11.3,122.3,25.8,125.3,47.1z"/>
		<path class="st5" d="M88.6,87.7c-6.2-5.3-13.6-5.5-19.3-5.7C65.8,82,52,81.6,43.2,91.2c-2.9,2.9-4.9,6.6-5.8,10.6
			c-1,5.4,0.1,11,3,15.7c18.4,5,37.9,3.9,55.7-3C96.4,113.4,99.3,97,88.6,87.7z"/>
		<path class="st5" d="M38.4,99.2c-3,7.1-2.2,14.4,2,18.3c2.1,1.9,6.5,4.6,9.7,2.7c2.7-1.7,3.9-6.4,1.7-11.1"/>
		<path class="st5" d="M94.8,99.2c2.8,7.4,1.9,14.7-2.4,18.6c-2.6,2.3-7.7,4.6-10.7,2.3c-2.6-2-3.2-7.4,0.1-12.2"/>
		<path class="st6" d="M62.1,94.2c-0.5-0.2-9.5-3.2-15.8,1.7c-1.8,1.4-3.2,3.3-4,5.5c4.3,3.5,10.2,4,14.5,1.6
			C59.8,101.1,61.8,97.8,62.1,94.2z"/>
		<path class="st6" d="M69.7,93.2c0.5-0.2,9.5-2.9,15.8,2.2c1.8,1.5,3.2,3.4,4,5.7c-4.2,3.3-9.9,3.7-14.5,1.1
			C71.9,100.2,69.9,96.9,69.7,93.2z"/>
		
			<ellipse transform="matrix(0.9968 -7.932904e-02 7.932904e-02 0.9968 -4.5402 5.2385)" class="st7" cx="63.7" cy="59.8" rx="44.5" ry="28"/>
		<path class="st8" d="M86.7,67.2c0,5.1-1,10.1-2.8,14.8c-5.2,3.8-11.4,5.9-17.8,6c-5.9,0.2-11.8-1.1-17-4
			c-2.9-4.9-4.8-10.3-5.7-15.8c-0.9-6.1-0.5-12.2,1.2-18.1l0,0c5.4-4.4,12.1-6.9,19-7c7-0.3,14,1.7,19.8,5.7L83,49.3
			C85.5,54.9,86.8,61,86.7,67.2z"/>
		<path class="st9" d="M91.7,64.5c0.4,6.8-3,13.1-8.8,17.4c1.8-4.7,2.8-9.7,2.8-14.8c0-6.2-1.2-12.3-3.8-17.9l0.4-0.5
			C87.8,52.6,91.4,58.2,91.7,64.5z"/>
		<path class="st9" d="M42.3,67.3c0.7,5.6,2.4,11,5.1,16c-6.8-4.1-11.2-10.7-11.3-18c-0.1-6.3,3-12,8.1-16.1l0,0
			C42.3,55,41.6,61.2,42.3,67.3z"/>
		<path class="st3" d="M82.4,48.7c5.4,3.9,8.9,9.5,9.3,15.8c0.4,6.8-3,13.1-8.8,17.4c-5.2,3.8-11.4,5.9-17.8,6
			c-5.9,0.2-11.8-1.1-17-4c-7-3.9-11.6-10.2-12-17.5c-0.3-6.3,2.6-12.1,7.5-16.4c5.4-4.4,12.1-6.9,19-7
			C69.7,42.6,76.7,44.6,82.4,48.7z"/>
		<path class="st10" d="M43.6,50c-4.6,11.3-2.9,24.3,4.5,34"/>
		<path class="st3" d="M82.1,48.6c3.1,5.3,4.7,11.4,4.6,17.6c-0.3,6.9-3.2,13.7-4.3,16.3c-0.3,0.6-0.5,1.1-0.7,1.5"/>
		<path class="st7" d="M49.7,83.2c4.3-2.1,6.2-7.3,4.1-11.6c-2.1-4.3-7.3-6.2-11.6-4.1c0.1,1.4,0.4,2.8,0.7,4.2
			c0.5,2.7,1.5,5.3,3,7.6C46.9,80.8,48.2,82.1,49.7,83.2z"/>
		<path class="st7" d="M81.7,80.8c-4.6-1.3-7.4-6.1-6.1-10.8c1.2-4.3,5.5-7.1,10-6.2c0.1,2,0.1,3.9-0.1,5.8c-0.1,1.8-0.5,3.6-1,5.4
			C83.8,77.1,82.9,79,81.7,80.8z"/>
		
			<ellipse transform="matrix(0.9968 -7.932904e-02 7.932904e-02 0.9968 -7.1207 5.527)" class="st6" cx="66" cy="92.4" rx="5.8" ry="3.9"/>
		<path class="st3" d="M25.3,75.8c2.5,0.6,5.1,0.4,7.5-0.5c2.5-0.9,3.3-1.7,4-2.5"/>
		<path class="st7" d="M28,44.8c-0.1,2.9,1.2,5.6,3.5,7.4c2.4,1.7,5.5,2.4,8.4,1.7"/>
		<path class="st3" d="M101.8,43.4c-0.5,1.3-1.2,2.5-2.1,3.7c-0.7,0.9-1.5,1.7-2.3,2.4c-2.6,2-5.7,3.4-9,4"/>
		<path class="st3" d="M91.4,69.4c3.6,3.5,9.3,3.4,12.8-0.2c0.1-0.2,0.3-0.3,0.4-0.5"/>
		<path class="st3" d="M64.3,31.7c-1,1.9-1.4,4.1-1.1,6.3c0.1,1.5,0.7,3,1.7,4.2"/>
		<path class="st3" d="M56.5,44c-0.1,0.4-1.2,4.9,1.6,7.9c1,1.1,2.3,1.8,3.8,2c3.1,0.3,6.3-2.3,6.2-4.4c-0.2-1.2-1.1-2.2-2.3-2.4
			c-1.5,0.1-2.6,1.3-2.7,2.8c0.1,2,3.4,4.3,6.2,3.5c1.5-0.5,2.7-1.6,3.4-3.1"/>
		<circle class="st11" cx="50.2" cy="62.8" r="2.5"/>
		<circle class="st11" cx="76.5" cy="61.1" r="2.5"/>
		<path class="st3" d="M60.6,65c0.8,1,2.1,1.5,3.4,1.4c1.1-0.2,2.1-0.9,2.7-1.8"/>
		<path class="st7" d="M103.8,113.1c-0.5,2.1-1.2,4.9-1.8,8.3c-1.6,8.2-1.1,9.5-0.5,10.3c1.9,2.4,6.7,2.9,9.3,0.9
			c1.5-1.1,2.3-3,2.6-12.9c0.1-5.3,0-9.9-0.2-13.2"/>
		<path class="st7" d="M114.7,107.1c1.4,6,2.2,10.8,2.7,14.3c0.7,5.1,0.8,8,2.9,9.1c2.2,0.9,4.7,0.3,6.3-1.5
			c1.4-1.7,0.8-4.4-0.3-9.7c-0.5-2.1-1.1-4.2-1.8-6.3"/>
		<path class="st12" d="M113,100.1c-1.2-3.7-3.8-6.8-7.2-8.7c-2.8-1.6-8.8-3.5-11.5-0.7c-2.5,2.5-2.1,8.6,2.5,13.8
			c-2.1,2.8-2.6,6.3-1.1,8.2c2.5,3.4,9.4,0.4,9.8,0.3c2.7-1.2,4.9-3.3,6.3-5.9"/>
		<path class="st12" d="M113.6,101c1-8.2,6.5-13.2,11.2-12.8c3.2,0.4,5.9,2.6,7,5.7c1.1,3.3,0.2,6.9-2.3,9.3
			c1.6,2.6,1.3,5.8-0.6,8.1c-1.6,1.5-3.7,2.1-5.8,1.7c-3.3-0.7-6-3.1-6.8-6.4"/>
		<path class="st12" d="M110.4,105.2c-0.9-1.3-0.7-3,0.4-4.1c1.5-1.4,3.8-1.6,5.5-0.3c1.3,1,1.6,2.8,0.7,4.2
			C115.7,107,111.8,107.1,110.4,105.2z"/>
		<path class="st3" d="M2.5,105.1c0.5,1.7,1.2,3.2,2,4.8c2,3.7,7.2,10.7,26.6,16c15.3,4.2,31.2,5.2,46.9,3.1
			c7.7-1.1,15.3-2.9,22.6-5.3"/>
		<path class="st4" d="M92.6,17.6C92,16.7,80.8,0.6,61.3,1.5c-13.9,0.7-26,9.4-31.3,22.2c12.6-5.4,26-8.2,39.7-8.4
			C77.4,15.2,85.1,16,92.6,17.6z"/>
		<path class="st3" d="M3.2,91c1.1,0.4,2.2,0.6,3.3,0.6c1.9,0,3.7-0.5,5.3-1.5"/>
		<path class="st11" d="M3.7,103c1.4,0.7,2.8,1,4.3,1c1.9,0,3.8-0.6,5.4-1.6l-1-11.4l-9.9,0.7C2.9,95.5,3.3,99.2,3.7,103z"/>
		<path class="st13" d="M115.4,84.9c3.5,0.9,7.1-0.1,9.7-2.6c0.3,1.5,0,3-0.8,4.2c-0.7,0.9-1.6,1.1-2.9,1.7
			c-1.7,0.8-3.2,1.8-4.5,3.1C116.4,89.2,115.9,87.1,115.4,84.9z"/>
	</g>
</g>
<g>
	<g>
		<g>
			<path class="st11" d="M22.9,140.6c0-2.3-0.5-4-1.6-5.1c-1.1-1.1-2.8-1.6-5.1-1.6c2.3,0,4-0.5,5.1-1.6c1.1-1.1,1.6-2.8,1.6-5.1
				c0,2.3,0.5,4,1.6,5.1c1.1,1.1,2.8,1.6,5.1,1.6c-2.3,0-4,0.5-5.1,1.6C23.4,136.6,22.9,138.3,22.9,140.6z"/>
		</g>
	</g>
</g>
<g>
	<g>
		<g>
			<path class="st11" d="M33.9,150.5c0-2.3-0.5-4-1.6-5.1c-1.1-1.1-2.8-1.6-5.1-1.6c2.3,0,4-0.5,5.1-1.6c1.1-1.1,1.6-2.8,1.6-5.1
				c0,2.3,0.5,4,1.6,5.1c1.1,1.1,2.8,1.6,5.1,1.6c-2.3,0-4,0.5-5.1,1.6C34.4,146.6,33.9,148.2,33.9,150.5z"/>
		</g>
	</g>
</g>
</svg>
